<svg fill="none" height="32" viewBox="0 0 32 32" width="32" xmlns="http://www.w3.org/2000/svg"><path d="m24.8296 4.62096c.152-.2584.2392-.5595.2392-.88096 0-.96098-.779-1.74-1.74-1.74-.6653 0-1.2435.37344-1.5362.92216l-.0038-.00217c-.57-.32-1.29-.25-1.79.18-.27.23-.45.54-.51.89-.0375.20322-.033.40643.0083.59987-.1429.01029-.2849.03104-.425.06215-.1177.02614-.2327.0595-.3447.09957l-.1785-.10158c-.9-.51-2.01-.39-2.79.28-.41.36-.69.85-.79 1.39-.1781.9465.2322 1.90177 1.017 2.43788l-.3471-.19785c-.99-.56-2.24-.44-3.1.31-.46.4-.77.95-.88 1.54997-.1769.9909.2175 1.9896.9964 2.6014-.6537-.2227-1.365-.1888-1.9894.0873-.4881-.7176-1.07433-1.3799-1.75389-1.9659-.2431-.2097-.57207-.2899-.88438-.2156-.31231.0742-.56999.2939-.69273.5905l-1.55981 3.7695c-1.38412 3.3369-.87423 7.091 1.20998 9.909.02313.0416.04934.0817.07853.12.30361.3984.63283.7659.98361 1.1019-.52538 1.1615-.08668 2.5525 1.04172 3.1919 1.16287.659 2.62627.2943 3.35277-.8209 2.6363.6083 5.5131.0842 7.8325-1.6831l.0009-.0006 7.169-5.4492c.2113-.1607.3501-.3987.3858-.6618.0356-.263-.0347-.5294-.1956-.7405-1.0408-1.3656-2.3825-2.3684-3.862-2.9857.4526-.399.7576-.9441.8665-1.5382.21-1.12-.32-2.26-1.32-2.82l-.5091-.2903c.8668.4283 1.9169.2974 2.6592-.3497.42-.36.7-.85.79-1.39.18-1.00998-.29-2.02998-1.18-2.53998l-.3468-.19728c-.03-.14397-.0708-.28506-.1219-.42211-.0242-.06519-.0508-.12946-.0797-.19269.2308-.05918.4502-.17237.6384-.33798.27-.23.45-.54999.51-.89.12-.65-.19-1.3-.76-1.63zm-6.0708 12.01604c-1.5274.2232-3.021.8255-4.3356 1.8273l-2.0817 1.5823c.0294-.2383.0502-.477.0626-.7156.1586-.0118.3192-.0014.4769.0317.2388.0502.479-.0794.5682-.3065.0892-.2272.0014-.4855-.2077-.6113-.3805-.2288-.676-.5609-.8623-.9469-.0245-.0508-.0471-.1026-.0678-.1551-.0406-.2783-.0927-.5546-.1561-.8283.0004-.1307.0122-.2624.0362-.394l.001-.0059c.0843-.4976.3469-.9572.7303-1.2898.2824-.2423.6124-.4059.9595-.4877.4093-.0966.841-.0793 1.2439.0559.2306.0774.4833-.0224.5989-.2363.1156-.214.0606-.4801-.1305-.6305-.2912-.2293-.5151-.5273-.6563-.8613-.1627-.3848-.2149-.8156-.1349-1.2423l.0003-.002c.0899-.4904.3438-.939.7168-1.2634.3259-.28409.7207-.45913 1.1315-.51813.4359-.06259.8873.00574 1.2913.211.2281.11588.5069.04086.6461-.17385.1391-.21471.0937-.49983-.1052-.66072-.2904-.23479-.5026-.54571-.617-.89178-.0988-.29932-.1244-.62563-.0636-.9523.1401-.75662.737-1.37707 1.4853-1.5433.4574-.10161.9478-.03568 1.3766.20726.448.2539.7599.43353 1.072.61329.3126.18006.6264.36085 1.078.61671.4055.22978.7029.58898.8575 1.00408.1182.31759.1528.66854.0873 1.01987-.0799.43167-.3036.8284-.6337 1.11137l-.0032.0028c-.2528.2204-.5499.3651-.8618.432-.3437.0738-.7054.0532-1.0449-.0656-.2429-.085-.5107.0283-.6188.2619-.1082.2335-.0213.511.2006.6413.4342.2548.7582.6422.9372 1.0891.1497.3735.1975.7874.1242 1.1993-.0901.4898-.3439.938-.7166 1.2621-.2868.25-.6269.4156-.9844.4919-.409.0874-.8388.0576-1.235-.0944-.2266-.0869-.4829.0015-.6078.2096s-.0823.4759.101.6349c.1289.1118.2432.2365.3417.3713zm-8.99702 5.3705-1.65611 1.2588c-1.25491-2.1544-1.47673-4.818-.48283-7.2139l.98004-2.3685c1.85612 2.2849 2.35122 5.4492 1.19193 8.2438zm5.87322-1.9521c2.9898-2.2787 7.16-1.9345 9.7483.655l-6.3196 4.8035-.001.0008c-2.9899 2.2787-7.16 1.9345-9.7483-.655z" fill="#212121"/></svg>