<svg viewBox="0 0 1024 1024" xmlns="http://www.w3.org/2000/svg"><path d="M664 192.25c0-199.872-304.03-199.936-304 0v423.61c-39.53 39.16-64.004 93.457-64.004 153.47 0 119.297 96.708 216.005 216.004 216.005s216.004-96.708 216.004-216.004c0-60.013-24.475-114.31-63.987-153.455l-.017-.016zM512 936c-92.785-.014-167.997-75.234-167.997-168.02 0-49.683 21.563-94.328 55.84-125.09l.158-.138.18-.375c4.152-3.902 6.888-9.266 7.382-15.267l.006-.085c.04-.448.23-.773.246-1.222l.188-.928V192.25c-.105-1.7-.164-3.69-.164-5.692 0-54.516 44.194-98.71 98.71-98.71 1.918 0 3.824.056 5.716.164l-.262-.012c1.63-.096 3.536-.15 5.455-.15 54.516 0 98.71 44.193 98.71 98.708 0 2.002-.06 3.99-.178 5.964l.012-.272v432.625l.188.934.23 1.136c.486 6.116 3.23 11.51 7.39 15.418l.012.012.18.377C658.436 673.653 680 718.298 680 767.98c0 92.787-75.213 168.007-167.997 168.02H512zm0-249.375c-44.942 0-81.375 36.433-81.375 81.375s36.433 81.375 81.375 81.375 81.375-36.433 81.375-81.375c-.535-44.725-36.65-80.84-81.324-81.374H512zM848 72c-57.438 0-104 46.562-104 104s46.562 104 104 104 104-46.562 104-104c-.057-57.415-46.585-103.943-103.994-104H848zm0 160c-30.928 0-56-25.072-56-56s25.072-56 56-56 56 25.072 56 56c-.04 30.912-25.088 55.96-55.996 56H848z"/></svg>